<?xml version="1.0" encoding="UTF-8" standalone="no"?>
<svg
   xmlns:dc="http://purl.org/dc/elements/1.1/"
   xmlns:cc="http://creativecommons.org/ns#"
   xmlns:rdf="http://www.w3.org/1999/02/22-rdf-syntax-ns#"
   xmlns:svg="http://www.w3.org/2000/svg"
   xmlns="http://www.w3.org/2000/svg"
   xmlns:sodipodi="http://sodipodi.sourceforge.net/DTD/sodipodi-0.dtd"
   xmlns:inkscape="http://www.inkscape.org/namespaces/inkscape"
   viewBox="36.91972351074219 132.8547821044922 374.89520263671875 227.98023986816406"
   data-svgdocument=""
      width="165.29649mm"
   height="76.034447mm"
   id="_qinxcWQiUAHl24sXgPJsk"
   class="fl-svgdocument"
   x="0"
   y="0"
   style="overflow: visible;"
   version="1.1"
   sodipodi:docname="estreeh.svg"
   inkscape:version="1.0.2 (e86c870879, 2021-01-15, custom)">
  <metadata
     id="metadata8">
    <rdf:RDF>
      <cc:Work
         rdf:about="">
        <dc:format>image/svg+xml</dc:format>
        <dc:type
           rdf:resource="http://purl.org/dc/dcmitype/StillImage" />
      </cc:Work>
    </rdf:RDF>
  </metadata>
  <sodipodi:namedview
     pagecolor="#ffffff"
     bordercolor="#666666"
     borderopacity="1"
     objecttolerance="10"
     gridtolerance="10"
     guidetolerance="10"
     inkscape:pageopacity="0"
     inkscape:pageshadow="2"
     inkscape:window-width="1920"
     inkscape:window-height="1001"
     id="namedview6"
     showgrid="false"
     inkscape:zoom="3.2409057"
     inkscape:cx="187.4476"
     inkscape:cy="113.99012"
     inkscape:window-x="1911"
     inkscape:window-y="-9"
     inkscape:window-maximized="1"
     inkscape:current-layer="_qinxcWQiUAHl24sXgPJsk" />
  <defs
     id="_iE46HdEuBiUA6fcNT9Tzl"
     transform="matrix(1.244294285774231, 0, 0, 1.244294285774231, -93.27105712890625, 72.90741729736328)" />
  <path
     id="_JsehbpV10IuL2FFRbbp6T"
     fill="#2da4c4"
     d="M92.139,54.505c-6.827-10.277-15.203-4.646-26.324-1.971c-11.121,2.673-8.447-14.782,1.548-30.267  c9.994-15.485,0.212-21.116-7.32-16.049c-4.99,3.357-30.06,14.671-34.49,3.801c-1.167-2.864-2.306-5.93-4.136-7.76  c-0.389-0.39-0.563-0.141-0.431,0.286c0.27,0.875,0.484,1.551,0.873,3.218c0.41,1.662,0.852,3.693,1.292,6.038  c0.457,2.343,0.861,5.005,1.21,7.924c0.329,2.919,0.643,6.093,0.777,9.46c0.1,1.683,0.133,3.414,0.176,5.183  c0.034,0.885,0.016,1.78,0.008,2.683c-0.008,0.903-0.017,1.815-0.025,2.735c-0.037,1.817-0.053,3.641,0.006,5.483  c0.028,0.918,0.08,1.836,0.157,2.742c0.076,0.903,0.181,1.805,0.369,2.63c0.093,0.41,0.206,0.803,0.343,1.135  c0.136,0.329,0.303,0.586,0.428,0.701c0.132,0.105,0.167,0.133,0.379,0.15c0.201,0.02,0.548-0.037,0.918-0.143  c0.76-0.222,1.626-0.611,2.51-1.002c0.89-0.394,1.811-0.808,2.779-1.158c1.928-0.708,4.053-1.207,6.225-1.181  c2.018,0.047,4.04,0.218,6.033,0.625c1.999,0.396,3.936,1.107,5.709,2.001c1.771,0.903,3.387,1.971,4.892,3.088  c3.014,2.236,5.612,4.672,8.064,6.973c2.445,2.3,4.692,4.566,6.74,6.61c0.982,0.928,2.104,1.723,3.188,2.385  c1.094,0.662,2.2,1.178,3.279,1.534c2.161,0.733,4.207,0.787,5.811,0.438c0.805-0.172,1.498-0.43,2.095-0.682  c0.587-0.267,1.074-0.537,1.451-0.783c0.188-0.126,0.354-0.236,0.497-0.332c0.138-0.103,0.253-0.191,0.346-0.262  c0.188-0.142,0.284-0.215,0.284-0.215l0.008-0.007c0.037-0.028,0.09-0.021,0.118,0.017c0.026,0.036,0.021,0.087-0.013,0.115  c0,0-0.094,0.079-0.274,0.233c-0.09,0.077-0.202,0.172-0.335,0.285c-0.138,0.109-0.304,0.228-0.487,0.365  c-0.739,0.534-1.908,1.266-3.578,1.704c-1.659,0.439-3.819,0.479-6.118-0.19c-2.293-0.66-4.732-1.929-6.954-3.86  c-2.136-1.997-4.431-4.169-6.911-6.413c-2.486-2.233-5.129-4.575-8.077-6.715c-1.476-1.062-3.037-2.062-4.713-2.888  c-1.679-0.817-3.473-1.447-5.342-1.812c-1.869-0.371-3.792-0.526-5.721-0.562c-1.919-0.013-3.824,0.436-5.633,1.11  c-0.907,0.336-1.798,0.719-2.688,1.109c-0.893,0.386-1.782,0.79-2.733,1.064c-0.476,0.128-0.974,0.233-1.488,0.192  c-0.513-0.024-1.029-0.251-1.397-0.611c-0.37-0.362-0.614-0.812-0.802-1.268c-0.187-0.457-0.314-0.931-0.419-1.403  c-0.398-1.899-0.467-3.813-0.511-5.693c-0.033-1.882,0.011-3.74,0.074-5.565c0.101-3.645,0.154-7.171,0.046-10.513  c-0.066-3.343-0.283-6.498-0.512-9.406c-0.267-2.905-0.557-5.565-0.905-7.911c-0.336-2.346-0.689-4.383-1.024-6.052  c-0.402-2.052-0.631-3.175-1.136-3.892c-1.373-1.945-3.387-2.371-5.842-1.513C10.799,1.715,8.105,9.125,8.87,34.515  c0.731,24.271,14.15,54.462,40.674,57.09v2.86c-14.857,0.096-26.607,1.291-26.607,2.752c0,1.524,12.764,2.758,28.507,2.758  c15.744,0,28.507-1.233,28.507-2.758c0-1.461-11.748-2.656-26.606-2.752v-2.656C82.379,91.791,100.397,66.932,92.139,54.505z"
     transform="matrix(2.280860424041748, 0, 0, 2.280860424041748, 16.986194610595703, 132.80601501464844)"
     style="fill:#5890a7;fill-opacity:1" />
  <path
     text="estreeh"
     text-anchor="start"
     font-size="100"
     letter-spacing="0"
     side="left"
     offset="0"
     dx="0"
     dy="0"
     space="preserve"
     href=""
     font-family="Fjalla One"
     font-scale="contain"
     transform="matrix(0.7753931879997253, 0, 0, 0.7753931879997253, 186.6154327392578, 225.67642211914062)"
     x="0"
     y="0"
     fill="#3a3a3a"
     data-fl-textpath=""
     id="_GD7tezHxNdptOcTqNWd5X"
     d="M 22.56 0.73L 22.56 0.73Q 18.21 0.73  14.87-0.88Q 11.52-2.49  9.23-5.91Q 6.93-9.33  5.76-14.67Q 4.59-20.02  4.59-27.54L 4.59-27.54L 4.59-40.23Q 4.59-46.63  5.54-51.2Q 6.49-55.76  8.03-58.86Q 9.57-61.96  11.6-63.77Q 13.62-65.58  15.77-66.53Q 17.92-67.48  20.04-67.75Q 22.17-68.02  23.97-68.02L 23.97-68.02Q 27.29-68.02  30.37-67.02Q 33.45-66.02  35.79-63.6Q 38.13-61.18  39.53-57.13Q 40.92-53.08  40.92-47.02L 40.92-47.02Q 40.92-44.97  40.8-42.87Q 40.67-40.77  40.48-38.75Q 40.28-36.72  39.97-34.81Q 39.65-32.91  39.31-31.3L 39.31-31.3L 16.99-31.3L 16.99-24.46Q 16.99-20.07  17.33-17.07Q 17.68-14.06  18.48-12.23Q 19.29-10.4  20.68-9.59Q 22.07-8.79  24.17-8.79L 24.17-8.79Q 25.29-8.79  26.37-9.25Q 27.44-9.72  28.25-10.79Q 29.05-11.87  29.54-13.65Q 30.03-15.43  30.03-18.07L 30.03-18.07L 30.03-20.17L 40.33-20.17L 40.33-17.58Q 40.33-8.01  35.77-3.64Q 31.2 0.73  22.56 0.73ZM 16.99-39.6L 29.39-39.6Q 29.44-40.14  29.49-41.04Q 29.54-41.94  29.57-42.92Q 29.59-43.9  29.59-44.85Q 29.59-45.8  29.59-46.48L 29.59-46.48Q 29.59-53.13  28.03-56.05Q 26.46-58.98  23.39-58.98L 23.39-58.98Q 21.78-58.98  20.56-58.23Q 19.34-57.47  18.55-55.69Q 17.77-53.91  17.38-50.98Q 16.99-48.05  16.99-43.7L 16.99-43.7L 16.99-39.6ZM 48.72953125-14.06L 48.72953125-14.06Q 48.72953125-16.26  49.14953125-18.31Q 49.55953125-20.36  49.94953125-21.58L 49.94953125-21.58L 58.63953125-21.58Q 58.63953125-17.92  59.00953125-15.45Q 59.37953125-12.99  60.20953125-11.52Q 61.039531249999996-10.06  62.42953125-9.42Q 63.81953125-8.79  65.81953125-8.79L 65.81953125-8.79Q 68.59953125-8.79  69.86953125-10.35Q 71.13953125-11.91  71.13953125-13.96L 71.13953125-13.96Q 71.13953125-15.04  70.84953125-16.02Q 70.55953124999999-16.99  70.01953125-17.99Q 69.47953125000001-18.99  68.69953125-20.02Q 67.91953125-21.04  66.93953125-22.27L 66.93953125-22.27L 57.90953125-32.91Q 56.14953125-35.11  54.51953125-37.38Q 52.87953125-39.65  51.63953125-42.07Q 50.38953125-44.48  49.62953125-47.12Q 48.87953125-49.76  48.87953125-52.69L 48.87953125-52.69Q 48.87953125-56.59  50.21953125-59.47Q 51.55953125-62.35  53.82953125-64.26Q 56.09953125-66.16  59.07953125-67.09Q 62.05953125-68.02  65.37953125-68.02L 65.37953125-68.02Q 69.03953125-68.02  71.96953125-67.14Q 74.89953125-66.26  76.99953125-64.5Q 79.09953125-62.74  80.22953125000001-60.13Q 81.34953125-57.52  81.34953125-54.05L 81.34953125-54.05Q 81.34953125-51.71  80.92953125-49.51Q 80.51953125-47.31  80.12953125-45.75L 80.12953125-45.75L 71.57953125-45.75Q 71.52953125-49.07  71.28953125-51.56Q 71.04953125-54.05  70.38953125-55.69Q 69.72953125000001-57.32  68.57953125-58.15Q 67.42953125-58.98  65.57953125-58.98L 65.57953125-58.98Q 63.96953125-58.98  62.889531250000005-58.47Q 61.81953125-57.96  61.15953125-57.13Q 60.499531250000004-56.3  60.22953125-55.27Q 59.95953125-54.25  59.95953125-53.17L 59.95953125-53.17Q 59.95953125-50.83  61.07953125-48.83Q 62.20953125-46.83  64.05953124999999-44.48L 64.05953124999999-44.48L 73.92953125-32.91Q 74.99953125-31.59  76.41953125-29.71Q 77.82953125-27.83  79.09953125-25.56Q 80.36953125-23.29  81.24953124999999-20.61Q 82.12953125-17.92  82.12953125-14.99L 82.12953125-14.99Q 82.12953125-11.43  81.00953125000001-8.52Q 79.87953125-5.62  77.68953125-3.56Q 75.48953125-1.51  72.28953125-0.39Q 69.08953125 0.73  64.98953125 0.73L 64.98953125 0.73Q 61.61953125 0.73  58.63953125-0.02Q 55.65953125-0.78  53.46953125-2.51Q 51.26953125-4.25  49.999531250000004-7.08Q 48.72953125-9.91  48.72953125-14.06ZM 93.258046875-16.75L 93.258046875-58.45L 88.038046875-58.45L 88.038046875-67.24L 94.338046875-67.24L 96.828046875-84.67L 105.618046875-84.67L 105.618046875-67.24L 116.358046875-67.24L 116.358046875-58.45L 105.618046875-58.45L 105.618046875-15.67Q 105.618046875-13.48  106.028046875-12.13Q 106.448046875-10.79  107.178046875-10.03Q 107.908046875-9.28  108.888046875-9.03Q 109.868046875-8.79  110.938046875-8.79L 110.938046875-8.79Q 112.748046875-8.79  114.138046875-9.23Q 115.528046875-9.67  116.798046875-10.45L 116.798046875-10.45L 116.798046875-3.61Q 115.718046875-2.29  114.478046875-1.46Q 113.228046875-0.63  111.918046875-0.12Q 110.598046875 0.39  109.228046875 0.59Q 107.858046875 0.78  106.53804687499999 0.78L 106.53804687499999 0.78Q 103.95804687500001 0.78  101.558046875 0.1Q 99.168046875-0.59  97.318046875-2.51Q 95.45804687500001-4.44  94.358046875-7.86Q 93.258046875-11.28  93.258046875-16.75L 93.258046875-16.75ZM 124.80703125 0L 124.80703125-67.24L 133.83703125-67.24L 134.91703125-60.4Q 136.96703125-64.21  139.62703125000002-66.11Q 142.28703124999998-68.02  145.06703125-68.02L 145.06703125-68.02Q 150.38703125-68.02  152.92703125-64.75Q 155.46703125-61.47  155.46703125-54.93L 155.46703125-54.93Q 155.46703125-54.1  155.34703125-52.95Q 155.22703125-51.81  155.00703125-50.56Q 154.78703124999998-49.32  154.46703125-48.07Q 154.14703125-46.83  153.80703125-45.8L 153.80703125-45.8L 145.21703125-45.8L 145.21703125-52.05Q 145.21703125-54.1  144.94703125-55.42Q 144.67703125-56.74  144.23703125-57.54Q 143.79703125-58.35  143.21703125-58.67Q 142.62703125000002-58.98  141.94703125-58.98L 141.94703125-58.98Q 140.47703125-58.98  139.23703125-58.03Q 137.98703125-57.08  137.15703125-55.37L 137.15703125-55.37L 137.15703125 0L 124.80703125 0ZM 179.49359375 0.73L 179.49359375 0.73Q 175.14359375 0.73  171.80359375-0.88Q 168.45359375-2.49  166.16359375-5.91Q 163.86359375-9.33  162.69359375-14.67Q 161.52359375-20.02  161.52359375-27.54L 161.52359375-27.54L 161.52359375-40.23Q 161.52359375-46.63  162.47359375-51.2Q 163.42359375-55.76  164.96359375-58.86Q 166.50359375-61.96  168.53359375-63.77Q 170.55359375-65.58  172.70359375-66.53Q 174.85359375000002-67.48  176.97359375-67.75Q 179.10359375000002-68.02  180.90359375-68.02L 180.90359375-68.02Q 184.22359375-68.02  187.30359375-67.02Q 190.38359375-66.02  192.72359375-63.6Q 195.06359375-61.18  196.46359375-57.13Q 197.85359375000002-53.08  197.85359375000002-47.02L 197.85359375000002-47.02Q 197.85359375000002-44.97  197.73359375-42.87Q 197.60359375000002-40.77  197.41359375-38.75Q 197.21359375-36.72  196.90359375-34.81Q 196.58359375-32.91  196.24359375-31.3L 196.24359375-31.3L 173.92359375-31.3L 173.92359375-24.46Q 173.92359375-20.07  174.26359374999998-17.07Q 174.61359375-14.06  175.41359375-12.23Q 176.22359375-10.4  177.61359375-9.59Q 179.00359375-8.79  181.10359375000002-8.79L 181.10359375000002-8.79Q 182.22359375-8.79  183.30359375-9.25Q 184.37359375-9.72  185.18359375-10.79Q 185.98359375-11.87  186.47359375-13.65Q 186.96359375-15.43  186.96359375-18.07L 186.96359375-18.07L 186.96359375-20.17L 197.26359374999998-20.17L 197.26359374999998-17.58Q 197.26359374999998-8.01  192.70359375-3.64Q 188.13359375 0.73  179.49359375 0.73ZM 173.92359375-39.6L 186.32359375-39.6Q 186.37359375-40.14  186.42359375-41.04Q 186.47359375-41.94  186.50359375-42.92Q 186.52359375-43.9  186.52359375-44.85Q 186.52359375-45.8  186.52359375-46.48L 186.52359375-46.48Q 186.52359375-53.13  184.96359375-56.05Q 183.39359375-58.98  180.32359375-58.98L 180.32359375-58.98Q 178.71359375-58.98  177.49359375-58.23Q 176.27359375-57.47  175.48359375-55.69Q 174.70359375-53.91  174.31359375-50.98Q 173.92359375-48.05  173.92359375-43.7L 173.92359375-43.7L 173.92359375-39.6ZM 224.513125 0.73L 224.513125 0.73Q 220.163125 0.73  216.823125-0.88Q 213.473125-2.49  211.183125-5.91Q 208.883125-9.33  207.713125-14.67Q 206.543125-20.02  206.543125-27.54L 206.543125-27.54L 206.543125-40.23Q 206.543125-46.63  207.493125-51.2Q 208.443125-55.76  209.983125-58.86Q 211.523125-61.96  213.553125-63.77Q 215.573125-65.58  217.723125-66.53Q 219.87312500000002-67.48  221.993125-67.75Q 224.12312500000002-68.02  225.923125-68.02L 225.923125-68.02Q 229.243125-68.02  232.323125-67.02Q 235.403125-66.02  237.743125-63.6Q 240.083125-61.18  241.483125-57.13Q 242.87312500000002-53.08  242.87312500000002-47.02L 242.87312500000002-47.02Q 242.87312500000002-44.97  242.753125-42.87Q 242.62312500000002-40.77  242.433125-38.75Q 242.233125-36.72  241.923125-34.81Q 241.603125-32.91  241.263125-31.3L 241.263125-31.3L 218.943125-31.3L 218.943125-24.46Q 218.943125-20.07  219.28312499999998-17.07Q 219.633125-14.06  220.433125-12.23Q 221.243125-10.4  222.633125-9.59Q 224.023125-8.79  226.12312500000002-8.79L 226.12312500000002-8.79Q 227.243125-8.79  228.323125-9.25Q 229.393125-9.72  230.203125-10.79Q 231.003125-11.87  231.493125-13.65Q 231.983125-15.43  231.983125-18.07L 231.983125-18.07L 231.983125-20.17L 242.28312499999998-20.17L 242.28312499999998-17.58Q 242.28312499999998-8.01  237.723125-3.64Q 233.153125 0.73  224.513125 0.73ZM 218.943125-39.6L 231.343125-39.6Q 231.393125-40.14  231.443125-41.04Q 231.493125-41.94  231.523125-42.92Q 231.543125-43.9  231.543125-44.85Q 231.543125-45.8  231.543125-46.48L 231.543125-46.48Q 231.543125-53.13  229.983125-56.05Q 228.413125-58.98  225.343125-58.98L 225.343125-58.98Q 223.733125-58.98  222.513125-58.23Q 221.293125-57.47  220.503125-55.69Q 219.723125-53.91  219.333125-50.98Q 218.943125-48.05  218.943125-43.7L 218.943125-43.7L 218.943125-39.6ZM 253.32265625 0L 253.32265625-88.82L 265.67265625-88.82L 265.67265625-73L 265.04265625-61.47Q 266.40265625-63.38  267.99265625-64.62Q 269.58265625-65.87  271.26265625-66.63Q 272.95265625-67.38  274.68265625-67.7Q 276.41265625-68.02  278.12265625-68.02L 278.12265625-68.02Q 284.03265625-68.02  287.23265625-63.89Q 290.43265625-59.77  290.43265625-51.51L 290.43265625-51.51L 290.43265625 0L 278.07265625 0L 278.07265625-51.07Q 278.07265625-55.52  276.71265625-57.25Q 275.34265625-58.98  272.70265625-58.98L 272.70265625-58.98Q 270.85265625-58.98  268.97265625-57.74Q 267.09265625-56.49  265.67265625-54.3L 265.67265625-54.3L 265.67265625 0L 253.32265625 0Z" />
</svg>
