<?xml version="1.0" encoding="UTF-8" standalone="no"?>
<svg
   xmlns:dc="http://purl.org/dc/elements/1.1/"
   xmlns:cc="http://creativecommons.org/ns#"
   xmlns:rdf="http://www.w3.org/1999/02/22-rdf-syntax-ns#"
   xmlns:svg="http://www.w3.org/2000/svg"
   xmlns="http://www.w3.org/2000/svg"
   xmlns:sodipodi="http://sodipodi.sourceforge.net/DTD/sodipodi-0.dtd"
   xmlns:inkscape="http://www.inkscape.org/namespaces/inkscape"
   viewBox="36.919724 132.85478 252.29851 133.9701"
   data-svgdocument=""
   width="111.24191mm"
   height="44.680813mm"
   id="_qinxcWQiUAHl24sXgPJsk"
   class="fl-svgdocument"
   x="0"
   y="0"
   style="overflow:visible"
   version="1.1"
   sodipodi:docname="estreeh.svg"
   inkscape:version="1.0.2 (e86c870879, 2021-01-15, custom)">
  <metadata
     id="metadata8">
    <rdf:RDF>
      <cc:Work
         rdf:about="">
        <dc:format>image/svg+xml</dc:format>
        <dc:type
           rdf:resource="http://purl.org/dc/dcmitype/StillImage" />
      </cc:Work>
    </rdf:RDF>
  </metadata>
  <sodipodi:namedview
     pagecolor="#ffffff"
     bordercolor="#666666"
     borderopacity="1"
     objecttolerance="10"
     gridtolerance="10"
     guidetolerance="10"
     inkscape:pageopacity="0"
     inkscape:pageshadow="2"
     inkscape:window-width="1920"
     inkscape:window-height="1001"
     id="namedview6"
     showgrid="false"
     inkscape:zoom="1.1458332"
     inkscape:cx="223.38031"
     inkscape:cy="148.78109"
     inkscape:window-x="1911"
     inkscape:window-y="-9"
     inkscape:window-maximized="1"
     inkscape:current-layer="_qinxcWQiUAHl24sXgPJsk"
     inkscape:document-rotation="0" />
  <defs
     id="_iE46HdEuBiUA6fcNT9Tzl"
     transform="matrix(1.244294285774231, 0, 0, 1.244294285774231, -93.27105712890625, 72.90741729736328)" />
  <g
     id="g842"
     transform="translate(-66.935031,-24.68438)">
    <path
       id="_JsehbpV10IuL2FFRbbp6T"
       fill="#2da4c4"
       d="m 167.30305,234.76874 c -8.51923,-12.82439 -18.9714,-5.7976 -32.84901,-2.45955 -13.8776,3.33557 -10.54078,-18.44605 1.93171,-37.76937 12.47125,-19.32331 0.26456,-26.35008 -9.13443,-20.02711 -6.22689,4.1891 -37.511064,18.30754 -43.039142,4.74316 -1.456268,-3.57391 -2.877595,-7.39987 -5.161202,-9.68348 -0.485423,-0.48668 -0.702553,-0.17596 -0.537834,0.35689 0.336927,1.09189 0.603971,1.93544 1.089393,4.01565 0.511629,2.07397 1.063188,4.6084 1.612253,7.53466 0.570278,2.92376 1.074418,6.24559 1.509926,9.88814 0.410549,3.64255 0.802382,7.60329 0.969598,11.80488 0.124787,2.10016 0.165967,4.26023 0.219624,6.46772 0.04244,1.10437 0.01996,2.22121 0.01008,3.34805 -0.01008,1.12684 -0.02122,2.26489 -0.03119,3.41292 -0.04616,2.2674 -0.06613,4.54352 0.0075,6.8421 0.03494,1.14555 0.09983,2.29109 0.195917,3.42167 0.09483,1.12683 0.225865,2.2524 0.460466,3.28191 0.116049,0.51162 0.257062,1.00203 0.428019,1.41633 0.169712,0.41055 0.378107,0.73124 0.53409,0.87476 0.164719,0.13099 0.208396,0.16595 0.472944,0.18717 0.250822,0.025 0.683834,-0.0462 1.145548,-0.17845 0.948383,-0.27701 2.029041,-0.76244 3.13216,-1.25036 1.110608,-0.49166 2.259898,-1.00827 3.467839,-1.44503 2.405899,-0.8835 5.057629,-1.50618 7.768011,-1.47374 2.51821,0.0587 5.04141,0.27203 7.52842,0.77992 2.4945,0.49416 4.91163,1.38139 7.1241,2.49699 2.20999,1.12682 4.22656,2.45957 6.10459,3.85343 3.7611,2.79025 7.00308,5.83007 10.06286,8.70142 3.05105,2.8701 5.85503,5.6978 8.41066,8.24844 1.22542,1.15803 2.62553,2.15008 3.97823,2.97617 1.36516,0.8261 2.74532,1.47 4.09176,1.91425 2.69666,0.91469 5.24981,0.98207 7.2514,0.54656 1.00454,-0.21462 1.86931,-0.53657 2.61429,-0.85104 0.7325,-0.33319 1.34021,-0.67011 1.81066,-0.97709 0.2346,-0.15724 0.44176,-0.29449 0.62019,-0.41429 0.17222,-0.12855 0.31572,-0.23835 0.43177,-0.32695 0.2346,-0.1772 0.3544,-0.26829 0.3544,-0.26829 l 0.0101,-0.009 c 0.0462,-0.0348 0.11228,-0.0262 0.14724,0.0212 0.0324,0.0449 0.0262,0.10853 -0.0163,0.14351 0,0 -0.11732,0.0986 -0.34192,0.29076 -0.11228,0.096 -0.25208,0.21462 -0.41803,0.35565 -0.1722,0.13603 -0.37936,0.28451 -0.60771,0.45546 -0.92218,0.66637 -2.38095,1.57981 -4.4649,2.12637 -2.07021,0.54783 -4.76563,0.59774 -7.63448,-0.23708 -2.86138,-0.8236 -5.90494,-2.40715 -8.67772,-4.8168 -2.66545,-2.492 -5.52932,-5.20238 -8.62404,-8.00261 -3.10222,-2.7865 -6.40035,-5.70902 -10.07909,-8.37946 -1.84185,-1.32524 -3.78978,-2.57312 -5.88121,-3.60386 -2.09518,-1.01952 -4.33387,-1.80568 -6.66614,-2.26114 -2.33227,-0.46296 -4.73194,-0.65638 -7.13908,-0.70131 -2.394673,-0.0163 -4.771869,0.54408 -7.029273,1.38514 -1.13182,0.41929 -2.243676,0.89723 -3.354282,1.38388 -1.11435,0.48169 -2.223709,0.98582 -3.410437,1.32774 -0.593987,0.15973 -1.215428,0.29077 -1.856835,0.23959 -0.640158,-0.0299 -1.28406,-0.31321 -1.743279,-0.76244 -0.461712,-0.45173 -0.766193,-1.01328 -1.000794,-1.58231 -0.233351,-0.57027 -0.39183,-1.16176 -0.522859,-1.75076 -0.496652,-2.36972 -0.582755,-4.75815 -0.637662,-7.10414 -0.04118,-2.3485 0.01367,-4.66705 0.09234,-6.94441 0.126039,-4.54851 0.192173,-8.9485 0.05741,-13.11889 -0.08237,-4.17164 -0.353149,-8.10867 -0.638912,-11.73749 -0.333182,-3.62508 -0.695066,-6.94442 -1.129324,-9.87193 -0.419286,-2.92751 -0.859786,-5.46943 -1.277822,-7.55213 -0.501645,-2.56063 -0.787407,-3.96199 -1.417584,-4.85672 -1.713329,-2.42711 -4.226547,-2.9587 -7.290075,-1.88803 -4.53477,1.5873 -7.896539,10.83403 -6.941917,42.51752 0.912196,30.28713 17.657404,67.96166 50.755985,71.24107 v 3.56892 c -18.539648,0.11976 -33.202156,1.611 -33.202156,3.43414 0,1.90176 15.927852,3.44164 35.573116,3.44164 19.64651,0 35.57312,-1.53863 35.57312,-3.44164 0,-1.82314 -14.66001,-3.31435 -33.20091,-3.43414 v -3.31435 c 36.23075,-0.0224 58.71493,-31.04332 48.40998,-46.55066 z"
       style="fill:#5890a7;fill-opacity:1;stroke-width:1.24788" />
    <path
       id="_VeJDs572SUOh1EKprQBTg"
       fill="#404a46"
       text="estreeh"
       text-anchor="start"
       font-size="100px"
       letter-spacing="0"
       side="left"
       offset="0"
       dx="0"
       dy="0"
       space="preserve"
       href=""
       font-family="Coiny"
       font-scale="contain"
       x="0"
       y="0"
       data-fl-textpath=""
       d="m 160.48337,225.42679 v 0 q -8.15035,0 -13.46145,-6.145 -5.31109,-6.145 -5.31109,-16.77683 v 0 q 0,-11.50968 5.24428,-18.19115 5.24429,-6.68147 13.52826,-6.68147 v 0 q 7.81633,0 11.45726,4.0479 3.64094,4.04789 3.64094,11.07075 v 0 q 0,1.36556 -0.23382,2.63357 -0.23383,1.26802 -0.73487,2.48726 -0.50105,1.21925 -1.33612,2.24342 -0.83508,1.02416 -1.90398,1.85325 -1.0689,0.82909 -2.53864,1.26802 -1.46973,0.43893 -3.13989,0.43893 v 0 l -9.41967,0.0975 q 0.66807,3.12127 2.40502,4.92575 1.73696,1.80448 4.40921,1.80448 v 0 q 2.87267,0 5.87895,-1.07293 v 0 q 1.26931,-0.4877 2.77245,-1.56064 1.50314,-1.07293 2.17121,-1.07293 v 0 q 1.1357,0 1.77036,0.97538 0.63466,0.97541 0.63466,2.43851 v 0 q 0,1.75571 -1.0689,4.24297 -1.0689,2.48726 -2.97287,4.97453 -1.90398,2.48726 -5.04387,4.24297 -3.1399,1.75572 -6.74743,1.75572 z m -4.54282,-27.89635 v 0 q 4.60963,-0.0975 5.01046,-0.0975 v 0 q 1.00209,0 1.46974,-1.75572 v 0 q 0.33404,-1.26801 0.33404,-3.51143 v 0 q 0,-6.145 -2.53865,-6.145 v 0 q -0.93528,0 -1.83716,1.4631 -0.90189,1.46309 -1.56995,4.14543 -0.66806,2.68235 -0.86848,5.90116 z m 41.62026,-19.8981 v 0 q 6.21298,0 10.35496,3.70651 4.14199,3.7065 4.14199,8.09579 v 0 q 0,1.26802 -0.73486,2.34095 -0.73488,1.07294 -1.87058,1.07294 v 0 q -1.00209,0 -2.2046,-1.02418 -1.20252,-1.02415 -2.27142,-2.19463 -1.0689,-1.17049 -2.80586,-2.14587 -1.73696,-0.9754 -3.67434,-0.9754 v 0 q -2.60544,0 -2.60544,2.34095 v 0 q 0,1.65818 1.33612,2.63357 1.33613,0.9754 3.90816,2.04834 2.57204,1.07292 3.90817,2.04833 v 0 q 5.01046,2.82864 6.88104,6.09623 1.87057,3.26758 1.87057,8.63227 v 0 q 0,2.63357 -1.00209,5.21837 -1.00209,2.5848 -3.00629,4.87698 -2.00418,2.29219 -5.44469,3.70651 -3.44052,1.41433 -7.84974,1.41433 v 0 q -8.61799,0 -12.8936,-5.75484 v 0 q -2.07099,-2.82866 -2.07099,-5.8524 v 0 q 0,-1.85324 0.83508,-2.92619 0.83509,-1.07292 2.37162,-1.07292 v 0 q 1.53654,0 4.67644,2.19464 3.13989,2.19464 5.81214,2.19464 v 0 q 3.67433,0 3.67433,-2.63357 v 0 q 0,-1.36555 -1.93738,-2.19464 -1.93737,-0.82909 -5.07726,-1.99958 -3.13989,-1.17046 -5.01047,-2.92619 v 0 q -2.93947,-1.85324 -4.10858,-4.63312 -1.16912,-2.77988 -1.16912,-6.77901 v 0 q 0,-6.82778 4.44262,-11.1683 4.44261,-4.34051 11.52407,-4.34051 z m 23.84982,26.33572 v 0 -11.50969 q -1.67015,-0.0975 -2.67225,-0.82909 -1.00209,-0.73154 -1.43633,-1.90202 -0.43424,-1.17048 -0.43424,-2.92619 v 0 q 0,-5.55976 4.60963,-6.04746 v 0 -9.07119 q 0,-3.70651 3.67433,-6.68147 3.67435,-2.97496 7.28188,-2.97496 v 0 q 2.20461,0 2.87267,1.85324 0.66805,1.85327 0.66805,5.55976 v 0 l 0.0668,11.21708 h 1.80378 q 3.67434,0 5.04386,1.41432 1.36953,1.41433 1.36953,5.12084 v 0 q 0,1.56062 -0.40083,2.63357 -0.40084,1.07294 -1.30273,1.65817 -0.90188,0.58524 -2.17121,0.82909 -1.2693,0.24385 -3.13988,0.24385 v 0 h -1.20252 v 10.72937 q 0,1.56062 0.10022,2.5848 0.10021,1.02417 0.30063,1.60939 0.20041,0.58525 0.56785,0.78033 0.36744,0.19508 0.90189,0.19508 v 0 q 0.80166,0 1.33612,-0.8291 0.53445,-0.82907 0.83508,-1.85324 0.30061,-1.02417 0.80166,-1.85325 0.50105,-0.82909 1.16912,-0.82909 v 0 q 1.53654,0 2.37163,1.07293 0.83506,1.07294 0.83506,2.63358 v 0 q 0,2.63357 -0.70145,5.6573 -0.70147,3.02373 -2.0376,5.85238 -1.33612,2.82865 -3.70774,4.68191 -2.37162,1.85325 -5.31109,1.85325 v 0 q -6.61382,0 -9.35287,-4.87698 -2.73906,-4.87699 -2.73906,-15.99651 z m 44.49293,-9.16874 v 19.60548 q 0,5.85238 -1.67015,8.14457 -1.67016,2.29218 -5.94576,2.29218 v 0 q -3.94156,0 -5.34449,-2.68234 -1.40293,-2.68234 -1.40293,-8.82734 v 0 -23.99478 q 0,-3.31634 0.80167,-5.8036 0.80168,-2.48726 2.33822,-3.85283 1.53654,-1.36554 3.60753,-1.36554 v 0 q 5.07728,0 6.68062,4.29173 v 0 q 3.87476,-4.29173 7.4823,-4.29173 v 0 q 7.01466,0 7.01466,9.75397 v 0 q 0,3.90157 -1.53656,6.34008 -1.53654,2.43849 -4.00836,2.43849 v 0 q -1.46974,0 -2.37162,-0.87786 -0.90189,-0.87786 -1.67017,-1.75571 -0.76826,-0.87786 -1.77035,-0.87786 v 0 q -1.46975,0 -2.20461,1.46309 z m 34.20478,30.62747 v 0 q -8.15036,0 -13.46145,-6.145 -5.31109,-6.145 -5.31109,-16.77683 v 0 q 0,-11.50968 5.24428,-18.19115 5.24428,-6.68147 13.52826,-6.68147 v 0 q 7.81632,0 11.45726,4.0479 3.64093,4.04789 3.64093,11.07075 v 0 q 0,1.36556 -0.23382,2.63357 -0.23382,1.26802 -0.73486,2.48726 -0.50105,1.21925 -1.33613,2.24342 -0.83507,1.02416 -1.90397,1.85325 -1.0689,0.82909 -2.53864,1.26802 -1.46974,0.43893 -3.13989,0.43893 v 0 l -9.41968,0.0975 q 0.66807,3.12127 2.40503,4.92575 1.73696,1.80448 4.40921,1.80448 v 0 q 2.87267,0 5.87895,-1.07293 v 0 q 1.26931,-0.4877 2.77245,-1.56064 1.50314,-1.07293 2.1712,-1.07293 v 0 q 1.1357,0 1.77037,0.97538 0.63466,0.97541 0.63466,2.43851 v 0 q 0,1.75571 -1.0689,4.24297 -1.0689,2.48726 -2.97288,4.97453 -1.90397,2.48726 -5.04387,4.24297 -3.13989,1.75572 -6.74742,1.75572 z m -4.54283,-27.89635 v 0 q 4.60964,-0.0975 5.01047,-0.0975 v 0 q 1.00209,0 1.46974,-1.75572 v 0 q 0.33402,-1.26801 0.33402,-3.51143 v 0 q 0,-6.145 -2.53863,-6.145 v 0 q -0.93528,0 -1.83717,1.4631 -0.90188,1.46309 -1.56994,4.14543 -0.66807,2.68235 -0.86849,5.90116 z m 44.29252,27.89635 v 0 q -8.15036,0 -13.46145,-6.145 -5.31109,-6.145 -5.31109,-16.77683 v 0 q 0,-11.50968 5.24428,-18.19115 5.24429,-6.68147 13.52826,-6.68147 v 0 q 7.81632,0 11.45726,4.0479 3.64094,4.04789 3.64094,11.07075 v 0 q 0,1.36556 -0.23382,2.63357 -0.23383,1.26802 -0.73488,2.48726 -0.50103,1.21925 -1.33611,2.24342 -0.83509,1.02416 -1.90399,1.85325 -1.06889,0.82909 -2.53863,1.26802 -1.46973,0.43893 -3.13988,0.43893 v 0 l -9.41968,0.0975 q 0.66806,3.12127 2.40502,4.92575 1.73696,1.80448 4.40921,1.80448 v 0 q 2.87266,0 5.87894,-1.07293 v 0 q 1.26932,-0.4877 2.77247,-1.56064 1.50313,-1.07293 2.1712,-1.07293 v 0 q 1.1357,0 1.77036,0.97538 0.63466,0.97541 0.63466,2.43851 v 0 q 0,1.75571 -1.06891,4.24297 -1.06889,2.48726 -2.97286,4.97453 -1.90398,2.48726 -5.04387,4.24297 -3.1399,1.75572 -6.74743,1.75572 z m -4.54282,-27.89635 v 0 q 4.60962,-0.0975 5.01047,-0.0975 v 0 q 1.00209,0 1.46973,-1.75572 v 0 q 0.33403,-1.26801 0.33403,-3.51143 v 0 q 0,-6.145 -2.53864,-6.145 v 0 q -0.93529,0 -1.83717,1.4631 -0.90189,1.46309 -1.56994,4.14543 -0.66806,2.68235 -0.86848,5.90116 z m 46.89796,19.21532 -0.0669,-18.04486 q 0,-5.55975 -2.93947,-5.55975 v 0 q -0.53445,0 -0.96869,0.19508 -0.43425,0.19508 -0.80168,0.4877 -0.36744,0.29262 -0.66806,0.82908 -0.30063,0.53646 -0.53445,1.17048 -0.23383,0.63401 -0.33404,1.51187 -0.1002,0.87785 -0.1002,1.95079 v 0 10.72937 q 0,7.99825 -1.77037,11.36337 -1.77037,3.36512 -5.3779,3.36512 v 0 q -3.74115,0 -5.47811,-3.0725 -1.73696,-3.0725 -1.73696,-10.87568 v 0 l -0.13361,-41.55191 q 0,-6.04746 2.00419,-8.87612 2.00418,-2.82864 5.34449,-2.82864 v 0 q 3.54074,0 5.3445,2.14587 1.80377,2.14588 1.80377,8.68104 v 0 14.14325 q 4.94365,-4.38928 12.02512,-4.38928 v 0 q 3.20668,0 5.14407,2.38972 1.93738,2.38971 2.87266,7.55933 0.9353,5.1696 0.9353,13.558 v 0 q 0,4.29176 -0.10021,7.41303 -0.10022,3.12127 -0.30063,5.70607 -0.20042,2.5848 -0.60126,4.24298 -0.40084,1.65817 -0.93528,2.82865 -0.53445,1.17048 -1.36954,1.80448 -0.83506,0.63401 -1.83716,0.92663 -1.00209,0.29262 -2.40503,0.29262 v 0 q -3.74115,0 -5.37789,-1.99956 -1.63675,-1.99957 -1.63675,-6.09623 z"
       style="overflow:visible;fill:#000000;fill-opacity:0.74902;stroke-width:0.807234" />
  </g>
</svg>
