<?xml version="1.0" encoding="UTF-8" standalone="no"?>
<svg
   xmlns:dc="http://purl.org/dc/elements/1.1/"
   xmlns:cc="http://creativecommons.org/ns#"
   xmlns:rdf="http://www.w3.org/1999/02/22-rdf-syntax-ns#"
   xmlns:svg="http://www.w3.org/2000/svg"
   xmlns="http://www.w3.org/2000/svg"
   xmlns:sodipodi="http://sodipodi.sourceforge.net/DTD/sodipodi-0.dtd"
   xmlns:inkscape="http://www.inkscape.org/namespaces/inkscape"
   viewBox="36.919724 132.85478 212.84381 51.368686"
   data-svgdocument=""
   width="93.845787mm"
   height="17.132141mm"
   id="_qinxcWQiUAHl24sXgPJsk"
   class="fl-svgdocument"
   x="0"
   y="0"
   style="overflow:visible"
   version="1.1"
   sodipodi:docname="logo.svg"
   inkscape:version="1.0.2 (e86c870879, 2021-01-15, custom)">
  <metadata
     id="metadata8">
    <rdf:RDF>
      <cc:Work
         rdf:about="">
        <dc:format>image/svg+xml</dc:format>
        <dc:type
           rdf:resource="http://purl.org/dc/dcmitype/StillImage" />
      </cc:Work>
    </rdf:RDF>
  </metadata>
  <sodipodi:namedview
     pagecolor="#ffffff"
     bordercolor="#666666"
     borderopacity="1"
     objecttolerance="10"
     gridtolerance="10"
     guidetolerance="10"
     inkscape:pageopacity="0"
     inkscape:pageshadow="2"
     inkscape:window-width="1920"
     inkscape:window-height="1001"
     id="namedview6"
     showgrid="false"
     inkscape:zoom="1.1458332"
     inkscape:cx="45.908069"
     inkscape:cy="24.027087"
     inkscape:window-x="1911"
     inkscape:window-y="-9"
     inkscape:window-maximized="1"
     inkscape:current-layer="_qinxcWQiUAHl24sXgPJsk"
     inkscape:document-rotation="0" />
  <defs
     id="_iE46HdEuBiUA6fcNT9Tzl"
     transform="matrix(1.244294285774231, 0, 0, 1.244294285774231, -93.27105712890625, 72.90741729736328)" />
  <path
     id="_VeJDs572SUOh1EKprQBTg-3"
     fill="#404a46"
     text="estreeh"
     text-anchor="start"
     font-size="100px"
     letter-spacing="0"
     side="left"
     offset="0"
     dx="0"
     dy="0"
     space="preserve"
     href=""
     font-family="Coiny"
     font-scale="contain"
     x="0"
     y="0"
     data-fl-textpath=""
     d="m 23.35852,184.14977 v 0 q -8.991363,0 -14.8504898,-4.64308 -5.859126,-4.64308 -5.859126,-12.67635 v 0 q 0,-8.69657 5.785427,-13.745 5.7854258,-5.04843 14.9241888,-5.04843 v 0 q 8.622865,0 12.639499,3.05854 4.016634,3.05854 4.016634,8.36492 v 0 q 0,1.03179 -0.257949,1.98989 -0.257949,0.9581 -0.810697,1.87934 -0.552747,0.92125 -1.473994,1.6951 -0.921246,0.77384 -2.100441,1.40029 -1.179195,0.62645 -2.800589,0.9581 -1.621393,0.33164 -3.463886,0.33164 v 0 l -10.391658,0.0737 q 0.736997,2.35839 2.653189,3.72184 1.916193,1.36344 4.864181,1.36344 v 0 q 3.169087,0 6.485573,-0.81069 v 0 q 1.400295,-0.3685 3.058538,-1.1792 1.658243,-0.81069 2.39524,-0.81069 v 0 q 1.252895,0 1.953043,0.73699 0.700147,0.737 0.700147,1.84249 v 0 q 0,1.3266 -1.179196,3.20594 -1.179195,1.87934 -3.279636,3.75869 -2.100442,1.87934 -5.564328,3.20593 -3.463886,1.3266 -7.44367,1.3266 z m -5.011579,-21.07812 v 0 q 5.085279,-0.0737 5.527477,-0.0737 v 0 q 1.105496,0 1.621394,-1.32659 v 0 q 0.368498,-0.9581 0.368498,-2.65319 v 0 q 0,-4.64308 -2.800588,-4.64308 v 0 q -1.031796,0 -2.026742,1.10549 -0.994946,1.1055 -1.731943,3.13224 -0.736997,2.02674 -0.958096,4.45883 z m 45.914898,-15.03474 v 0 q 6.85407,0 11.42346,2.80059 4.56938,2.80059 4.56938,6.11708 v 0 q 0,0.95809 -0.8107,1.76879 -0.8107,0.8107 -2.06359,0.8107 v 0 q -1.1055,0 -2.43209,-0.77385 -1.3266,-0.77385 -2.50579,-1.65824 -1.1792,-0.8844 -3.09539,-1.6214 -1.91619,-0.73699 -4.05348,-0.73699 v 0 q -2.87429,0 -2.87429,1.76879 v 0 q 0,1.25289 1.47399,1.98989 1.474,0.737 4.31144,1.5477 2.83743,0.81069 4.31143,1.54769 v 0 q 5.52748,2.13729 7.59107,4.60623 2.06359,2.46894 2.06359,6.52242 v 0 q 0,1.9899 -1.1055,3.94294 -1.10549,1.95304 -3.31648,3.68498 -2.21099,1.73195 -6.00653,2.80059 -3.79553,1.06865 -8.65971,1.06865 v 0 q -9.50727,0 -14.224049,-4.34828 v 0 q -2.28469,-2.1373 -2.28469,-4.42199 v 0 q 0,-1.40029 0.92125,-2.21099 0.92125,-0.81069 2.61634,-0.81069 v 0 q 1.695089,0 5.158979,1.65824 3.46388,1.65824 6.41187,1.65824 v 0 q 4.05349,0 4.05349,-1.98989 v 0 q 0,-1.0318 -2.1373,-1.65824 -2.13729,-0.62645 -5.60117,-1.51085 -3.46389,-0.88439 -5.52748,-2.21099 v 0 q -3.242789,-1.40029 -4.532529,-3.50073 -1.28975,-2.10045 -1.28975,-5.12213 v 0 q 0,-5.15898 4.901029,-8.43862 4.90103,-3.27964 12.7132,-3.27964 z m 26.3108,19.89892 v 0 -8.69656 q -1.84249,-0.0737 -2.94799,-0.62645 -1.1055,-0.55275 -1.58454,-1.43714 -0.47905,-0.8844 -0.47905,-2.21099 v 0 q 0,-4.20089 5.08528,-4.56939 v 0 -6.85407 q 0,-2.80059 4.05348,-5.04843 4.05348,-2.24784 8.033271,-2.24784 v 0 q 2.43209,0 3.16909,1.4003 0.73699,1.40029 0.73699,4.20088 v 0 l 0.0737,8.47546 h 1.98988 q 4.05349,0 5.56433,1.06865 1.51085,1.06865 1.51085,3.86924 v 0 q 0,1.17919 -0.4422,1.98989 -0.4422,0.81069 -1.43715,1.25289 -0.99494,0.4422 -2.39524,0.62645 -1.40029,0.18425 -3.46388,0.18425 v 0 h -1.32659 v 8.10697 q 0,1.17919 0.11055,1.95304 0.11054,0.77384 0.33164,1.21604 0.2211,0.4422 0.62645,0.5896 0.40535,0.1474 0.99494,0.1474 v 0 q 0.8844,0 1.474,-0.62645 0.5896,-0.62644 0.92124,-1.40029 0.33165,-0.77385 0.8844,-1.4003 0.55275,-0.62644 1.28975,-0.62644 v 0 q 1.69509,0 2.61633,0.81069 0.92125,0.8107 0.92125,1.9899 v 0 q 0,1.98989 -0.77385,4.27458 -0.77384,2.28469 -2.24784,4.42198 -1.47399,2.13729 -4.09033,3.53759 -2.61634,1.40029 -5.85912,1.40029 v 0 q -7.296271,0 -10.317951,-3.68499 -3.02169,-3.68498 -3.02169,-12.08675 z m 49.083991,-6.92777 v 14.81364 q 0,4.42198 -1.84249,6.15393 -1.8425,1.73194 -6.55928,1.73194 v 0 q -4.34828,0 -5.89597,-2.02674 -1.5477,-2.02674 -1.5477,-6.66982 v 0 -18.13013 q 0,-2.50579 0.8844,-4.38513 0.8844,-1.87935 2.57949,-2.91114 1.69509,-1.0318 3.97978,-1.0318 v 0 q 5.60118,0 7.36997,3.24279 v 0 q 4.27459,-3.24279 8.25437,-3.24279 v 0 q 7.73847,0 7.73847,7.36997 v 0 q 0,2.94799 -1.69509,4.79048 -1.6951,1.8425 -4.42199,1.8425 v 0 q -1.62139,0 -2.61634,-0.6633 -0.99494,-0.6633 -1.84249,-1.3266 -0.84755,-0.66329 -1.95304,-0.66329 v 0 q -1.62139,0 -2.43209,1.10549 z m 37.73425,23.14171 v 0 q -8.99137,0 -14.85049,-4.64308 -5.85913,-4.64308 -5.85913,-12.67635 v 0 q 0,-8.69657 5.78543,-13.745 5.78542,-5.04843 14.92419,-5.04843 v 0 q 8.62286,0 12.6395,3.05854 4.01663,3.05854 4.01663,8.36492 v 0 q 0,1.03179 -0.25795,1.98989 -0.25795,0.9581 -0.8107,1.87934 -0.55274,0.92125 -1.47399,1.6951 -0.92125,0.77384 -2.10044,1.40029 -1.1792,0.62645 -2.80059,0.9581 -1.62139,0.33164 -3.46389,0.33164 v 0 l -10.39165,0.0737 q 0.73699,2.35839 2.65318,3.72184 1.9162,1.36344 4.86418,1.36344 v 0 q 3.16909,0 6.48558,-0.81069 v 0 q 1.40029,-0.3685 3.05854,-1.1792 1.65824,-0.81069 2.39524,-0.81069 v 0 q 1.25289,0 1.95304,0.73699 0.70015,0.737 0.70015,1.84249 v 0 q 0,1.3266 -1.1792,3.20594 -1.17919,1.87934 -3.27964,3.75869 -2.10044,1.87934 -5.56432,3.20593 -3.46389,1.3266 -7.44367,1.3266 z m -5.01158,-21.07812 v 0 q 5.08528,-0.0737 5.52747,-0.0737 v 0 q 1.1055,0 1.6214,-1.32659 v 0 q 0.3685,-0.9581 0.3685,-2.65319 v 0 q 0,-4.64308 -2.80059,-4.64308 v 0 q -1.0318,0 -2.02674,1.10549 -0.99495,1.1055 -1.73195,3.13224 -0.73699,2.02674 -0.95809,4.45883 z m 48.8629,21.07812 v 0 q -8.99136,0 -14.85049,-4.64308 -5.85913,-4.64308 -5.85913,-12.67635 v 0 q 0,-8.69657 5.78543,-13.745 5.78543,-5.04843 14.92419,-5.04843 v 0 q 8.62286,0 12.6395,3.05854 4.01663,3.05854 4.01663,8.36492 v 0 q 0,1.03179 -0.25795,1.98989 -0.25795,0.9581 -0.81069,1.87934 -0.55275,0.92125 -1.474,1.6951 -0.92124,0.77384 -2.10044,1.40029 -1.17919,0.62645 -2.80059,0.9581 -1.62139,0.33164 -3.46388,0.33164 v 0 l -10.39166,0.0737 q 0.737,2.35839 2.65319,3.72184 1.91619,1.36344 4.86418,1.36344 v 0 q 3.16908,0 6.48557,-0.81069 v 0 q 1.4003,-0.3685 3.05854,-1.1792 1.65824,-0.81069 2.39524,-0.81069 v 0 q 1.25289,0 1.95304,0.73699 0.70015,0.737 0.70015,1.84249 v 0 q 0,1.3266 -1.1792,3.20594 -1.17919,1.87934 -3.27963,3.75869 -2.10044,1.87934 -5.56433,3.20593 -3.46389,1.3266 -7.44367,1.3266 z m -5.01158,-21.07812 v 0 q 5.08528,-0.0737 5.52748,-0.0737 v 0 q 1.10549,0 1.62139,-1.32659 v 0 q 0.3685,-0.9581 0.3685,-2.65319 v 0 q 0,-4.64308 -2.80059,-4.64308 v 0 q -1.0318,0 -2.02674,1.10549 -0.99495,1.1055 -1.73194,3.13224 -0.737,2.02674 -0.9581,4.45883 z m 51.73719,14.51884 -0.0737,-13.63444 q 0,-4.20088 -3.24279,-4.20088 v 0 q -0.58959,0 -1.06864,0.1474 -0.47905,0.1474 -0.8844,0.36849 -0.40535,0.2211 -0.737,0.62645 -0.33164,0.40535 -0.58959,0.8844 -0.25795,0.47905 -0.3685,1.14234 -0.11055,0.6633 -0.11055,1.474 v 0 8.10697 q 0,6.04337 -1.95304,8.58601 -1.95305,2.54264 -5.93283,2.54264 v 0 q -4.12718,0 -6.04337,-2.32154 -1.9162,-2.32154 -1.9162,-8.21752 v 0 l -0.1474,-31.39607 q 0,-4.56938 2.21099,-6.70667 2.211,-2.13729 5.89598,-2.13729 v 0 q 3.90608,0 5.89598,1.62139 1.98989,1.62139 1.98989,6.55927 v 0 10.68646 q 5.45378,-3.31649 13.26595,-3.31649 v 0 q 3.53758,0 5.67487,1.80565 2.13729,1.80564 3.16909,5.71172 1.0318,3.90609 1.0318,10.24426 v 0 q 0,3.24279 -0.11055,5.60118 -0.11055,2.35839 -0.33165,4.31143 -0.2211,1.95304 -0.6633,3.20594 -0.4422,1.25289 -1.0318,2.13729 -0.58959,0.8844 -1.51084,1.36344 -0.92125,0.47905 -2.02674,0.70015 -1.1055,0.2211 -2.65319,0.2211 v 0 q -4.12718,0 -5.93283,-1.51084 -1.80564,-1.51085 -1.80564,-4.60624 z"
     style="overflow:visible;fill:#000000;fill-opacity:0.74902;stroke-width:0.736997" />
</svg>
