<?xml version="1.0" encoding="UTF-8" standalone="no"?>
<svg
   xmlns:dc="http://purl.org/dc/elements/1.1/"
   xmlns:cc="http://creativecommons.org/ns#"
   xmlns:rdf="http://www.w3.org/1999/02/22-rdf-syntax-ns#"
   xmlns:svg="http://www.w3.org/2000/svg"
   xmlns="http://www.w3.org/2000/svg"
   xmlns:sodipodi="http://sodipodi.sourceforge.net/DTD/sodipodi-0.dtd"
   xmlns:inkscape="http://www.inkscape.org/namespaces/inkscape"
   width="200.56705mm"
   height="66.373215mm"
   viewBox="0 0 200.56705 66.373215"
   version="1.1"
   id="svg8"
   inkscape:version="1.0.2 (e86c870879, 2021-01-15, custom)"
   sodipodi:docname="logo.svg">
  <defs
     id="defs2" />
  <sodipodi:namedview
     id="base"
     pagecolor="#444444"
     bordercolor="#666666"
     borderopacity="1.0"
     inkscape:pageopacity="0"
     inkscape:pageshadow="2"
     inkscape:zoom="0.7"
     inkscape:cx="509.32174"
     inkscape:cy="480.10154"
     inkscape:document-units="mm"
     inkscape:current-layer="layer1"
     inkscape:document-rotation="0"
     showgrid="false"
     inkscape:window-width="1431"
     inkscape:window-height="1032"
     inkscape:window-x="2366"
     inkscape:window-y="203"
     inkscape:window-maximized="0"
     fit-margin-top="0"
     fit-margin-left="0"
     fit-margin-right="0"
     fit-margin-bottom="0" />
  <metadata
     id="metadata5">
    <rdf:RDF>
      <cc:Work
         rdf:about="">
        <dc:format>image/svg+xml</dc:format>
        <dc:type
           rdf:resource="http://purl.org/dc/dcmitype/StillImage" />
        <dc:title></dc:title>
      </cc:Work>
    </rdf:RDF>
  </metadata>
  <g
     inkscape:label="Layer 1"
     inkscape:groupmode="layer"
     id="layer1"
     transform="translate(-4.2304365,-8.7953133)">
    <path
       style="fill:#fdfdfd;stroke:none;stroke-width:0.155425"
       d="M 74.032304,8.8717404 C 67.770691,9.7139894 66.51983,15.711659 64.457649,20.77339 59.611027,32.669321 54.836677,44.594311 50.065747,56.521171 c -1.872096,4.68032 -5.817097,10.76894 -2.357178,15.54251 2.113471,2.91594 6.953877,4.035 10.004095,2.00421 2.300137,-1.5314 3.677359,-4.20332 4.752279,-6.66696 0.487413,-1.11751 0.949958,-3.13182 1.874583,-3.94733 0.865873,-0.76361 3.753517,-0.24915 4.874598,-0.24915 h 11.035185 c 1.273398,0 3.459919,-0.42415 4.627784,0.0937 1.091861,0.48431 1.861527,3.65918 2.34521,4.72446 1.88282,4.1469 4.7672,7.89233 9.812921,6.92248 0.828105,-0.15916 1.596994,-0.50264 2.331374,-0.90939 4.643802,-2.57307 3.837922,-7.59532 2.265482,-11.76382 C 96.3355,48.229551 90.48048,34.336411 84.754929,20.462539 82.735334,15.568606 80.882045,7.9503744 74.032304,8.8717404 M 116.30795,31.808571 c -2.21466,-4.20192 -3.53592,-9.108376 -5.3157,-13.521984 -1.17408,-2.911688 -2.18714,-6.423534 -4.94236,-8.221819 -4.53842,-2.9622456 -11.097518,-0.1405036 -11.487635,5.424167 -0.210601,3.004725 0.957263,5.546066 2.118445,8.237532 1.277594,2.961005 2.556588,5.919364 3.88175,8.859234 1.74558,3.87179 3.47826,7.754 5.15327,11.65688 0.92882,2.16461 2.09078,4.37615 2.59965,6.68329 0.78816,3.57353 0.37675,7.12049 0.37675,10.72433 0,4.82377 -0.48027,10.49058 4.81818,12.7646 3.69865,1.58751 8.30483,-0.0211 9.75619,-3.90537 2.34863,-6.28586 -0.0312,-13.27144 1.27961,-19.73899 0.6803,-3.35703 2.46302,-6.51014 3.81911,-9.63636 2.42883,-5.59966 4.8017,-11.23288 7.33498,-16.785913 1.87878,-4.118191 4.33123,-9.477996 0.47513,-13.339581 -2.93924,-2.9435736 -8.60091,-2.7788146 -11.26785,0.439418 -1.58798,1.916082 -2.45992,4.856539 -3.37724,7.149433 -1.75848,4.396044 -3.51043,8.797529 -5.22228,13.211133 M 195.73019,9.0293264 c -6.94128,1.0840126 -6.37243,8.0559486 -6.37243,13.4537396 v 41.809365 c 0,2.08254 -0.1461,4.22336 0.57508,6.217 1.03046,2.84863 4.498,4.9304 7.50703,4.59437 1.00405,-0.11206 2.02364,-0.30743 2.95308,-0.71542 4.99225,-2.1901 4.3519,-8.23303 4.3519,-12.73818 0,-11.80982 -0.14299,-23.64032 -0.14299,-35.436932 0,-2.987737 0.33416,-6.015699 0.129,-9.014658 -0.34349,-5.007316 -3.59187,-9.0141446 -9.00067,-8.1692846 m -182.002841,0.15314 c -2.418384,0.317534 -4.8605791,0.08841 -6.8385816,1.8279236 -2.7198,2.391853 -2.6423517,5.820517 -2.6423517,9.141299 v 18.184742 24.0909 c 0,3.68652 -0.3870241,7.8157 2.6483512,10.52212 1.920433,1.71232 4.8479281,1.91189 7.2988581,1.91189 4.444382,0 8.955752,0.23935 13.366562,-0.35468 11.909917,-1.60446 20.696567,-13.59582 17.734785,-25.4459 -0.66009,-2.64129 -1.853444,-5.04556 -3.360291,-7.30498 -0.61968,-0.92897 -2.159166,-2.29128 -2.268119,-3.41935 -0.108642,-1.12404 0.917008,-2.66539 1.25568,-3.7302 0.795465,-2.49986 1.473896,-5.28555 1.221486,-7.926686 -0.207648,-2.174242 -0.69071,-4.356411 -1.529694,-6.372431 -2.16212,-5.195691 -6.920616,-9.383591 -12.432147,-10.6466216 -2.780555,-0.637228 -5.864812,-0.543988 -8.703807,-0.543988 -1.887017,0 -3.878868,-0.179811 -5.750731,0.06596 M 155.16423,24.503593 v 38.545438 c 0,4.53888 -0.57072,9.2338 4.35191,11.45296 0.78645,0.35468 1.6273,0.56202 2.4868,0.64377 1.83557,0.1747 3.63384,-0.69179 5.28445,-1.37069 0.59839,-0.24604 1.45012,-0.39198 1.82159,-0.96923 1.36618,-2.11845 1.38017,-6.07262 1.44079,-8.51341 0.32328,-13.23228 0.002,-26.53185 0.002,-39.788838 2.99349,0 6.9273,0.594501 9.63636,-0.93939 1.70346,-0.964723 4.44516,-4.117351 4.55085,-6.210167 0.12589,-2.478191 -2.67176,-6.194111 -4.70628,-7.285677 -2.47281,-1.3270356 -5.84087,-0.7964296 -8.54838,-0.7964296 -5.53469,0 -11.08492,-0.164331 -16.63049,-0.155425 -3.02115,0.0049 -7.15437,-0.430699 -9.79178,1.2574356 -4.99148,3.194981 -4.75959,10.603383 0.6217,13.293932 2.7804,1.390278 6.47315,0.835721 9.48093,0.835721 M 19.633505,24.192743 c 1.571503,0.464565 4.095452,-0.328103 5.433818,0.689155 2.347852,1.784436 3.296256,5.853003 0.471715,7.652663 -1.631653,1.03949 -4.187775,0.98245 -6.060958,0.98369 V 27.14582 l 0.155425,-2.953077 m 55.020499,12.434008 4.81818,12.12316 h -9.636359 l 3.137878,-8.0821 1.680301,-4.04106 m -55.175924,23.00292 0.155425,-12.43401 c 2.482606,0 5.645041,-0.5042 7.926682,0.68434 3.945622,2.05519 3.855631,8.29069 0.31085,10.64538 -2.287081,1.51928 -5.770469,1.10429 -8.392957,1.10429 m -5.12903,14.92082 -0.155425,0.15542 z"
       id="path60" />
    <path
       style="fill:#000000;stroke-width:0.155425"
       id="path58"
       d="" />
    <path
       style="fill:#000000;stroke-width:0.155425"
       id="path56"
       d="" />
  </g>
</svg>
