<?xml version="1.0" encoding="UTF-8" standalone="no"?>
<svg
   xmlns:dc="http://purl.org/dc/elements/1.1/"
   xmlns:cc="http://creativecommons.org/ns#"
   xmlns:rdf="http://www.w3.org/1999/02/22-rdf-syntax-ns#"
   xmlns:svg="http://www.w3.org/2000/svg"
   xmlns="http://www.w3.org/2000/svg"
   xmlns:sodipodi="http://sodipodi.sourceforge.net/DTD/sodipodi-0.dtd"
   xmlns:inkscape="http://www.inkscape.org/namespaces/inkscape"
   width="165.29649mm"
   height="76.034447mm"
   viewBox="0 0 165.29649 76.034447"
   version="1.1"
   id="svg8"
   sodipodi:docname="wecare.svg"
   inkscape:version="1.0.2 (e86c870879, 2021-01-15, custom)">
  <defs
     id="defs2" />
  <sodipodi:namedview
     id="base"
     pagecolor="#666666"
     bordercolor="#666666"
     borderopacity="1.0"
     inkscape:pageopacity="0"
     inkscape:pageshadow="2"
     inkscape:zoom="0.98994949"
     inkscape:cx="247.39534"
     inkscape:cy="107.10614"
     inkscape:document-units="mm"
     inkscape:current-layer="g855"
     inkscape:document-rotation="0"
     showgrid="false"
     inkscape:window-width="1920"
     inkscape:window-height="1001"
     inkscape:window-x="1911"
     inkscape:window-y="-9"
     inkscape:window-maximized="1"
     inkscape:pagecheckerboard="true" />
  <metadata
     id="metadata5">
    <rdf:RDF>
      <cc:Work
         rdf:about="">
        <dc:format>image/svg+xml</dc:format>
        <dc:type
           rdf:resource="http://purl.org/dc/dcmitype/StillImage" />
        <dc:title />
      </cc:Work>
    </rdf:RDF>
  </metadata>
  <g
     inkscape:label="Layer 1"
     inkscape:groupmode="layer"
     id="layer1"
     transform="translate(-25.594075,-25.076528)">
    <g
       id="g855">
      <g
         id="g844"
         style="fill:#000000;fill-opacity:0.75">
        <path
           id="path902"
           style="fill:#000000;fill-opacity:0.75;stroke-width:3.81834"
           d="M 318.31836 170.38281 C 317.56446 170.3778 316.80501 170.38715 316.04297 170.41016 C 307.91455 170.6556 299.35156 172.50672 290.96875 176.21484 C 270.10951 185.44184 261.60667 199.72607 261.68555 225.41211 C 261.75555 248.19881 267.60534 260.12007 284.20508 271.30664 C 299.79964 281.81581 325.12558 282.85584 344.26953 273.77148 C 365.42093 263.73445 376.01475 234.19336 358.46289 234.19336 C 354.88715 234.19336 349.2491 236.63654 345.93359 239.62305 C 334.6497 249.7873 320.28777 250.84835 311.59961 242.16016 C 298.83619 229.39677 302.88702 196.00977 317.19922 196.00977 C 321.47568 196.00977 322.61121 199.98166 321.83789 212.23828 C 320.83778 228.08951 321.10972 228.49474 333.58008 229.68945 C 350.4364 231.3044 360.90625 221.76503 360.90625 204.79102 C 360.90625 184.06 341.68936 170.53823 318.31836 170.38281 z M 586.11133 203.64648 C 559.65725 203.64648 545.68717 212.7591 541.99805 232.42383 C 538.36109 251.81031 542.84708 264.03569 556.69727 272.48047 C 574.60902 283.40171 598.0182 282.41616 612.62305 270.12695 C 631.27555 254.43189 628.4355 248.40845 603.83203 251.48242 C 590.38076 253.16306 582.39549 252.60062 580.69531 249.84961 C 578.95869 247.03972 583.61052 245.64844 594.74414 245.64844 C 613.64155 245.64844 620.55273 240.66832 620.55273 227.04883 C 620.55273 210.52152 610.43584 203.64648 586.11133 203.64648 z M 413.41211 204.14258 C 383.67744 204.45054 378.08789 211.54858 378.08789 242.56836 C 378.08789 261.87846 379.46435 266.52789 386.97461 272.60938 C 393.82886 278.15956 401.68565 279.72135 421.33984 279.4375 C 438.40162 279.19132 436.90337 276.91292 442.61523 274.86133 C 443.92878 274.38953 455.39825 279.82212 457.57227 277.9668 C 458.48585 277.18715 460.1821 274.80859 460.68555 273.49805 C 462.73666 268.15881 460.18164 256.9314 460.18164 241.83008 C 460.18164 221.01984 460.24263 210.14587 454.19727 207.09766 C 451.08956 205.53067 446.64674 208.44654 439.17188 208.10156 C 433.96733 207.86136 427.8329 204.29458 419.68555 204.16602 C 417.48311 204.13126 415.39442 204.12205 413.41211 204.14258 z M 584.93359 222.62891 C 586.66699 222.7141 588.0957 224.17196 588.0957 227.19336 C 588.0957 229.64344 585.78463 232.41752 582.95898 233.35938 C 579.74733 234.42995 578.31591 232.68455 579.14062 228.70312 C 579.88175 225.12508 582.12015 223.02224 584.17383 222.67578 C 584.43054 222.63248 584.68597 222.61674 584.93359 222.62891 z M 420.08984 226.55664 C 424.22634 226.55664 425.81836 230.79938 425.81836 241.83008 C 425.81836 245.18072 425.67308 250.82262 426.26562 253.16016 C 427.16443 256.70585 428.77844 256.26231 427.40039 257.24805 C 426.69605 257.75188 421.06397 257.10352 420.08984 257.10352 C 415.95333 257.10352 414.36328 252.86082 414.36328 241.83008 C 414.36328 230.79938 415.95333 226.55664 420.08984 226.55664 z "
           transform="matrix(0.26458333,0,0,0.26458333,25.594075,25.076528)" />
        <path
           id="path892"
           style="fill:#000000;fill-opacity:0.75;stroke-width:3.81834"
           d="M 282.35547 35.640625 C 264.38175 35.640625 260.59308 44.757765 262.21094 84.109375 C 263.52367 116.03889 263.70741 116.56634 278.19141 129.83984 C 291.70532 142.22433 294.22995 143.10131 310.64844 141.10742 C 332.976 138.39587 332.77042 138.39483 352.36523 141.10938 C 384.61106 145.57643 402.86991 122.55881 402.89258 77.416016 C 402.90988 42.413246 398.48398 34.520582 379.83008 36.294922 L 366.63281 37.548828 L 365.51953 71.714844 C 364.45378 104.39316 360.23931 118.22345 352.75781 113.59961 C 350.85262 112.42214 350.27213 100.84411 351.4668 87.869141 C 352.66147 74.894221 352.14415 59.122476 350.31641 52.822266 C 347.35931 42.629066 345.35749 41.367187 332.15039 41.367188 C 318.31909 41.367188 317.0991 42.278422 314.23438 54.732422 C 312.54361 62.082692 312.11332 77.831079 313.27734 89.730469 C 314.67728 104.04158 313.90369 112.28575 310.99414 114.08398 C 303.38663 118.78567 299.93156 107.26763 299.87109 77 C 299.79589 39.33297 298.23172 35.640625 282.35547 35.640625 z M 457.98047 66.1875 C 439.53551 66.1875 435.19113 67.679966 425.52344 77.347656 C 416.50315 86.367916 414.36328 91.796975 414.36328 105.64648 C 414.36328 120.09482 416.20644 124.33356 426.11133 132.66797 C 447.97722 151.0669 494.54688 141.92532 494.54688 119.23438 C 494.54688 112.47927 492.72017 111.98567 475.94531 114.21094 C 463.89032 115.8101 456.41905 115.18471 454.71875 112.43359 C 452.96116 109.5898 457.12103 108.1875 467.32031 108.1875 C 492.43243 108.1875 502.90463 89.818729 486.91016 73.824219 C 481.09929 68.013349 474.18388 66.1875 457.98047 66.1875 z M 458.77344 82.804688 C 458.89706 82.824093 459.00906 82.864811 459.11328 82.925781 C 459.94701 83.413551 460.18164 85.243526 460.18164 88.628906 C 460.18164 93.287096 457.74717 96.732422 454.45508 96.732422 C 451.30496 96.732422 448.72852 95.225742 448.72852 93.382812 C 448.72852 91.539873 451.30496 87.893677 454.45508 85.279297 C 456.54857 83.541853 457.90811 82.668847 458.77344 82.804688 z "
           transform="matrix(0.26458333,0,0,0.26458333,25.594075,25.076528)" />
        <path
           id="path904"
           style="fill:#000000;fill-opacity:0.75;stroke-width:3.81834"
           d="m 602.50391,299.09766 c -21.93925,0 -27.24637,1.23217 -30.35938,7.04882 -5.36855,10.03132 -4.7571,58.49677 0.80859,64.0625 7.26044,7.26044 25.16861,5.56591 29.64844,-2.80468 2.17395,-4.06209 3.95313,-15.12175 3.95313,-24.57813 v -17.19336 l 13.17383,2.13672 c 11.82308,1.91864 13.43222,1.10646 15.69921,-7.92578 4.08167,-16.2627 -3.03207,-20.74609 -32.92382,-20.74609 z"
           transform="scale(0.26458333)" />
        <path
           id="path911"
           style="fill:#000000;fill-opacity:0.75;stroke-width:3.81834"
           d="m 210.12695,142.36328 c -1.02381,-0.0981 -2.05779,-0.063 -3.04492,0.125 -6.13243,1.16761 -7.45707,5.90993 -9.08789,32.5293 -1.05004,17.13948 -3.27671,32.52204 -4.94726,34.18359 -1.67058,1.66156 -6.37111,0.93817 -10.44727,-1.60742 -4.07615,-2.54559 -10.01279,-4.62695 -13.19141,-4.62695 -10.17958,0 -6.21591,10.17022 9.49414,24.36328 l 15.27344,13.79883 v 32.46679 c 0,25.0303 -1.20446,32.46424 -5.25976,32.46485 -2.89298,0 -7.39931,-2.57644 -10.01368,-5.72657 -6.09576,-7.34577 -13.83876,-7.33409 -16.66211,0.0234 -1.40596,3.66388 3.98715,11.46106 14.86329,21.48633 25.09166,23.12867 22.71727,37.67383 -6.1504,37.67383 -9.23751,0 -11.14257,1.57665 -11.14257,9.22656 0,5.07519 2.14833,10.09505 4.77343,11.1543 2.6251,1.05921 22.26287,2.06064 43.63868,2.22656 30.08264,0.23335 40.18436,-1.0164 44.70312,-5.53516 8.25665,-8.25664 3.48062,-17.07226 -9.24805,-17.07226 -17.94362,0 -22.77343,-8.51103 -22.77343,-40.125 0,-27.54085 0.29665,-28.40532 14.31836,-41.69531 7.87529,-7.46431 15.60853,-13.58658 17.18359,-13.60547 1.57506,-0.0182 2.86328,-3.46978 2.86328,-7.66992 0,-8.47548 -10.90931,-10.47351 -18.07226,-3.31055 -2.37894,2.37861 -7.01731,3.2923 -10.3086,2.02929 -5.01342,-1.9238 -5.99398,-10.52354 -6.04297,-53.00976 -0.0322,-27.89193 -1.52576,-53.02963 -3.32031,-55.86133 -1.34591,-2.1238 -4.32698,-3.61206 -7.39844,-3.90625 z m 129.15821,49.06445 c -4.65829,0.46136 -9.29658,1.13393 -13.9336,1.84571 4.63702,-0.71178 9.27531,-1.38435 13.9336,-1.84571 z"
           transform="scale(0.26458333)" />
      </g>
    </g>
    <g
       id="g861">
      <path
         id="path900"
         style="fill:#5890a7;fill-opacity:1;stroke-width:3.81834"
         d="m 143.60156,260.42188 c -10.3962,0.45108 -21.2618,2.90555 -28.26172,7.17382 -22.874094,13.94782 -25.174115,52.27667 -4.02539,67.08985 9.81382,6.87386 46.79113,7.77074 50.83203,1.23242 1.62711,-2.63271 -0.66172,-6.79791 -5.50195,-10.01172 -6.11713,-4.06163 -8.28906,-9.3552 -8.28906,-20.20313 0,-13.3762 1.11634,-14.98709 12.4043,-17.9121 14.40096,-3.73165 18.55132,-15.01714 8.2832,-22.5254 -5.11817,-3.7425 -15.0452,-5.29483 -25.44141,-4.84374 z"
         transform="scale(0.26458333)" />
      <path
         id="path896"
         style="fill:#5890a7;fill-opacity:1;stroke-width:3.81834"
         d="m 143.97656,164.7832 c -20.19563,0 -41.43945,19.47547 -41.43945,37.99024 0,14.22754 8.75525,32.60613 18.13672,38.07031 3.67518,2.14061 14.89621,3.94394 24.9375,4.00781 21.23912,0.13508 28.15146,-8.10642 14.70117,-17.52734 -5.03526,-3.52683 -8.13867,-9.80687 -8.13867,-16.4707 0,-11.67704 5.21599,-17.72478 17.18359,-19.92579 4.20016,-0.77246 8.14446,-4.94083 8.76563,-9.26367 1.42134,-9.8914 -12.71746,-16.88086 -34.14649,-16.88086 z"
         transform="scale(0.26458333)" />
      <path
         id="path894"
         style="fill:#5890a7;fill-opacity:1;stroke-width:3.81834"
         d="m 272.49414,210.16406 c -9.50214,-0.16956 -18.41753,2.08985 -24.67187,7.1543 -10.1106,8.18705 -7.04731,20.01172 5.18359,20.01172 4.6055,0 10.43498,2.06192 12.95508,4.58203 7.13414,7.13416 5.42953,25.31372 -3.05469,32.57812 -4.20016,3.5963 -7.63672,8.73458 -7.63672,11.41797 0,5.17928 35.6918,7.0615 47.55859,2.50782 14.69316,-5.6383 23.10223,-45.39023 12.45899,-58.89649 -9.48943,-12.04209 -26.95607,-19.07286 -42.79297,-19.35547 z"
         transform="scale(0.26458333)" />
      <path
         id="path890"
         style="fill:#5890a7;fill-opacity:1;stroke-width:3.81834"
         d="m 207.26562,94.835938 c -3.90292,0.175357 -7.71544,0.747233 -11.36132,1.753906 -29.76314,8.218016 -53.73813,43.678306 -38.23242,56.546876 8.47955,7.0374 26.63969,3.48258 28.29101,-5.53711 2.22829,-12.17118 8.2912,-17.18164 20.78906,-17.18164 19.56361,0 25.60743,9.00071 25.60743,38.13867 -10e-6,14.02503 1.14486,26.64487 2.54492,28.04492 4.37444,4.37443 37.69708,2.77752 42.51172,-2.03711 6.21828,-6.2183 5.79809,-42.38824 -0.67188,-57.87304 C 266.35736,111.8323 234.58607,93.608435 207.26562,94.835938 Z"
         transform="scale(0.26458333)" />
    </g>
  </g>
</svg>
